<svg width="1025" height="132" xmlns="http://www.w3.org/2000/svg" xmlns:svg="http://www.w3.org/2000/svg">

 <g>
  <title>Layer 1</title>
  <path id="svg_1" d="m1023.40002,122.30078l-2.59998,0l0,-1.70001l4.19995,-12.69998c-8.59998,-1.60001 -35,1.5 -35,1.5l0,-1.5l-10.29999,0l0,-2.10001l-8.20001,0l0,2.10001l-2.09998,0l0,-6.20001l-2.09998,0l0,6.20001l-2.10004,0l0,-3.10001l-8.20001,0l-0.69995,-8.20001l-0.70001,8.20001l-4.60004,0l0,-8.20001l-2.09998,0l0,-1l0,-1l-1,-3.09998l-1,3.09998l0,0l-2.5,0l0,0l-0.80005,-2.69998l-0.79999,2.60001l0,0.09998l0,0.40002l-0.09998,0.69998l-18.40002,0l0,-19.5l-2.09998,0l0,-4.10001l-11.29999,0l0,4.10001l-2.10004,0l0,19.5l-24.59998,0l0,6.20001l-24.79999,0l1.19995,-11.30002l-27.69995,0l0.29999,3.10001l-9.60004,0l0,-3.10001l-3.09998,0l0,-4.29999l-0.09998,0c0.09998,-0.29999 0.09998,-0.60001 0.09998,-0.89999c0,-2.70001 -2.20001,-5 -5.09998,-5.39999l0,-3c0.19995,-0.20001 0.39996,-0.60001 0.39996,-0.90002c0,-0.69998 -0.59998,-1.29999 -1.39996,-1.29999c-0.80005,0 -1.40002,0.60001 -1.40002,1.29999c0,0.30002 0.09998,0.60001 0.40002,0.90002l0,3.09998c-2.80005,0.5 -4.90002,2.70001 -4.90002,5.40002c0,0.29999 0,0.59998 0.09998,0.89999l-0.39996,0l0,4.10001l-3.10004,0l0,3.79999c-1.5,0.20001 -2.39996,1.10001 -2.79999,3.39999l-1.29999,0l0,4.10001l-7.20001,0l0,4.10001l-7.20001,0l0,-6.20001l-1,0l0,-3.10001l-9.19995,0l0,-18.5l-15.40002,0l0,15.40002l-15.40002,0l0,-6.20001l-3.09998,0l0,6.20001l-12.29999,0l0,-10.30002l-4.10004,0l0,-6.19998l-1.5,0c0,-0.20001 0,-0.40002 0,-0.60001c0,-2.20001 -1.19995,-4 -2.59998,-4c-0.40002,0 -0.70001,0.10001 -1,0.29999l0,-5l-2.09998,0l0,-8.5c0.29999,-0.29999 -0.60004,-0.60001 -0.60004,-0.89999c0,-1 -0.5,-2.89999 -2.29999,-2.89999c-0.40002,0 -0.90002,1.10001 -1.29999,1.19998l0,-5.29999l-1,0l0,-2.10001l-1,0l0,-2.89999l-1.10004,0c0.10004,-0.39999 0.20001,-0.79999 0.20001,-1.20001c0,-1.5 -0.70001,-2.79999 -1.5,-2.79999c-0.09998,0 -0.20001,0 -0.29999,0.10001l0.20001,-1.30002c0.20001,0 0.79999,-2.09998 0.79999,-2.09998l-1.20001,-0.60001l-0.20001,1.60001l-0.5,-0.40002c-0.59998,-0.79999 -1.5,0.5 -1.5,0.5c1.10004,-0.19998 1.70001,1.40002 1.90002,2.60001c-0.5,0.5 -0.90002,1.39999 -0.90002,2.5c0,0.39999 0.10004,0.80002 0.20001,1.20001l-1.29999,0l0,3.10001l-1,0l0,2.09998l-1,0l0,7.20001l0,0c-0.09998,-1.20001 -0.90002,-2.10001 -1.90002,-2.10001c-1,0 -1.79999,0.89999 -1.89996,2.10001l-0.20001,0l0,9.20001l-2.09998,0l0,9.19998l-1.10004,0c0,-0.19998 0.10004,-0.39999 0.10004,-0.60001c0,-2.19998 -1.5,-4 -3.30005,-4s-3.29999,1.80002 -3.29999,4c0,0.20001 0,0.40002 0.10004,0.60001l-1.60004,0l0,2.10001l-11.5,0c-0.5,-1.79999 -1,-2.89999 -2.09998,-3c-2.90002,-0.29999 -2.90002,2.29999 -2.90002,2.5l0,-6.60001l-2.09998,0l0,-8.29999c0,-0.30002 -0.40002,-0.60001 -0.40002,-0.89999c0,-1 -0.20001,-2.80002 -1.79999,-2.80002c-0.40002,0 -0.90002,1 -0.90002,1.10001l0,-4.60001l-1,0l0,-2.10001l-1,0l0,-3.09998l-1,0c0.10004,-1 0.10004,-0.90002 0.10004,-1.30002c0,-1.29999 -0.5,-2.5 -1.10004,-2.69998c0,-1.10001 0.10004,-3.60001 1.5,-3.60001c0,0 -1,-1.10001 -1.5,-0.30002l-0.39996,0.5l-0.40002,-1.5l-1.09998,0.80002c0,0 0.79999,2 1.09998,2l0.70001,2.19998c0,0 0,0 -0.09998,0c-0.70001,0 -1.30005,1.30002 -1.30005,2.80002c0,0.39999 0.10004,0.19998 0.10004,1.19998l-0.79999,0l0,3.10001l-1,0l0,2.10001l-1,0l0,6.20001l-0.10004,0c-0.09998,-1 -0.79999,-2 -1.70001,-2c-0.89996,0 -1.59998,0.89999 -1.69995,2l-0.70001,0l0,8.19998l-2.10004,0l0,9.20001l-0.09998,0c0,0 0,-0.10001 0,-0.30002c0,-2.09998 -1.29999,-3.69998 -2.90002,-3.69998c-1.59998,0 -2.89996,1.5 -2.89996,3.69998c0,0.20001 0,0.40002 0,0.40002l-1.20001,0l0,3.09998l-2.09998,0l0,4.10001l-14.40002,0l0,3.10001l-7.20001,0l0,-3.10001l-20.5,0l0,3.10001l-10.29999,0l0,3.10001l-2.09998,0l0,5.10001l-2.10004,0l0,3.09998l-9.20001,0l0,1l-9.09998,0l0,-4.09998l0,-7.20001l0,-4.10001l-7.20001,0l0,2.10001l-1,0l0,-4.5l-2.89996,-7.79999l-2.30005,7.79999l0,3.10001l-16.39996,0l0,-15.20001l5.09998,-1.69998l0,-4.60001l-2.59998,0c-0.5,-1.30002 -1.70001,-1.5 -2.60004,-1.5l0,-2.60001l2.10004,0l0,-4.10001l-2.10004,0l0,-1l-3.09998,0l0,1l-2,0l0,4.10001l2.09998,0l0,2.60001c-0.79999,0.10001 -1.69995,0.39999 -2.09998,1.5l-3,0l0,4.60001l5.09998,1.69998l0,15.30002l-12.29999,0l0,-3.20001l-12.29999,0l0,3.10001l-3.10001,0l0,-7.20001l-4.10001,0l0,-12.29999l-21.59998,0l0,-2.10001l-2.10001,0l0,-2.60001l-2.10001,-0.19998l0,-1.30002l-3.10001,0l-0.60001,-3.10001l-3,0l0.30002,-2.09998l-2.89999,0l0,-2.10001l0,-3.10001l0,-4l-24.60001,0l0,7.20001l4.10001,0l0,29.79999l-23.60001,0l0,-14.39999l-9.20001,0l0,4.10001l-4.10001,0l0,-17.5l-3.09998,0l0,-2.10001l-8.20001,0l0,2.10001l-24.60001,0l0,-3.10001l-10.29999,0l0,20.5l-4.10001,0l0,8.19998l-6.20001,0l0,6.20001l-4.09998,0l0,5.10001l-6.20001,0l0,-2.10001l-11.29999,0l0,2.10001l-13.40002,0l0,-37l-3.09998,0l0,-3.10001l-25.70001,0l0,3.10001l-3.10001,0l0,31.79999l-11.29999,0l0,-2.89999l-3.10001,0l0,-71.89999l-5.60001,-11.30002l-2.39999,0l0,-3.09998l-11.29999,0l0,3.09998l-4.10001,0l0,82l-23.60001,-1.09998l0,-24.5l-18.5,-1.20001l-52.39999,4.29999l0,-28.79999l-11.3,0l0,-5.10001l-9.2,0l0,5.10001l-10.3,0l0,13.5l-2.10001,0l0,39l-2.1,0l0,-9.20001l-12.3,0l0,5.10001l-12.2,0l0,1l-4.1,0l0,3.10001l-4.1,0l0,13.39999l-6.2,0l0,-40.10001l-3.1,0l0,-9.19998l-13.1,0l-5.4,1.5l0,5.60001l-2.1,0l0,-45.20001l-7.2,-0.79999l-3,3l-5.2,-0.70001l0,-1.5l-7.2,-0.60001l0,-2.10001c-17.7,7.40002 -21.2,19.80002 -21.5,20.80002c0,0 -0.1,0.10001 -0.1,0.10001l0,76.19998l-4.1,0l0,-5.10001l-11.2,0l0,9.20001l0,15.39999l0,6.20001l1020.79999,0l0,-8.10001l2.60004,0l0,-2zm-317.60004,-52.70001c-1.09998,0 -2,-1.5 -2,-3.39999s0.90002,-3.39999 2,-3.39999c1.09998,0 2,1.5 2,3.39999s-0.89996,3.39999 -2,3.39999zm8.20001,0c-1.09998,0 -2,-1.5 -2,-3.39999s0.90002,-3.39999 2,-3.39999c1.09998,0 2,1.5 2,3.39999s-0.79999,3.39999 -2,3.39999z" fill="#000000"/>
 </g>
</svg>