<?xml version="1.0" encoding="utf-8"?>
<!-- Generator: Adobe Illustrator 18.0.0, SVG Export Plug-In . SVG Version: 6.00 Build 0)  -->
<!DOCTYPE svg PUBLIC "-//W3C//DTD SVG 1.1//EN" "http://www.w3.org/Graphics/SVG/1.1/DTD/svg11.dtd">
<svg version="1.1" id="Слой_1" xmlns="http://www.w3.org/2000/svg" xmlns:xlink="http://www.w3.org/1999/xlink" x="0px" y="0px"
	 viewBox="0 0 1024 768" enable-background="new 0 0 1024 768" xml:space="preserve">
<path fill="#000000"      d="
	M1024.4,496h-2.6v-1.7l4.2-12.7c-8.6-1.6-35,1.5-35,1.5v-1.5h-10.3v-2.1h-8.2v2.1h-2.1v-6.2h-2.1v6.2h-2.1v-3.1h-8.2l-0.7-8.2
	l-0.7,8.2H952v-8.2h-2.1v-1v-1l-1-3.1l-1,3.1l0,0h-2.5l0,0l-0.8-2.7l-0.8,2.6v0.1v0.4l-0.1,0.7h-18.4v-19.5h-2.1v-4.1h-11.3v4.1
	h-2.1v19.5h-24.6v6.2h-24.8l1.2-11.3h-27.7l0.3,3.1h-9.6v-3.1h-3.1V460h-0.1c0.1-0.3,0.1-0.6,0.1-0.9c0-2.7-2.2-5-5.1-5.4v-3
	c0.2-0.2,0.4-0.6,0.4-0.9c0-0.7-0.6-1.3-1.4-1.3c-0.8,0-1.4,0.6-1.4,1.3c0,0.3,0.1,0.6,0.4,0.9v3.1c-2.8,0.5-4.9,2.7-4.9,5.4
	c0,0.3,0,0.6,0.1,0.9h-0.4v4.1h-3.1v3.8c-1.5,0.2-2.4,1.1-2.8,3.4H802v4.1h-7.2v4.1h-7.2v-6.2h-1v-3.1h-9.2v-18.5H762v15.4h-15.4
	v-6.2h-3.1v6.2h-12.3v-10.3h-4.1v-6.2h-1.5c0-0.2,0-0.4,0-0.6c0-2.2-1.2-4-2.6-4c-0.4,0-0.7,0.1-1,0.3v-5h-2.1v-8.5
	c0.3-0.3-0.6-0.6-0.6-0.9c0-1-0.5-2.9-2.3-2.9c-0.4,0-0.9,1.1-1.3,1.2v-5.3h-1v-2.1h-1V420h-1.1c0.1-0.4,0.2-0.8,0.2-1.2
	c0-1.5-0.7-2.8-1.5-2.8c-0.1,0-0.2,0-0.3,0.1l0.2-1.3c0.2,0,0.8-2.1,0.8-2.1l-1.2-0.6l-0.2,1.6l-0.5-0.4c-0.6-0.8-1.5,0.5-1.5,0.5
	c1.1-0.2,1.7,1.4,1.9,2.6c-0.5,0.5-0.9,1.4-0.9,2.5c0,0.4,0.1,0.8,0.2,1.2h-1.3v3.1h-1v2.1h-1v7.2h0c-0.1-1.2-0.9-2.1-1.9-2.1
	c-1,0-1.8,0.9-1.9,2.1h-0.2v9.2h-2.1v9.2h-1.1c0-0.2,0.1-0.4,0.1-0.6c0-2.2-1.5-4-3.3-4s-3.3,1.8-3.3,4c0,0.2,0,0.4,0.1,0.6h-1.6
	v2.1h-11.5c-0.5-1.8-1-2.9-2.1-3c-2.9-0.3-2.9,2.3-2.9,2.5v-6.6h-2.1v-8.3c0-0.3-0.4-0.6-0.4-0.9c0-1-0.2-2.8-1.8-2.8
	c-0.4,0-0.9,1-0.9,1.1v-4.6h-1v-2.1h-1v-3.1h-1c0.1-1,0.1-0.9,0.1-1.3c0-1.3-0.5-2.5-1.1-2.7c0-1.1,0.1-3.6,1.5-3.6
	c0,0-1-1.1-1.5-0.3l-0.4,0.5l-0.4-1.5l-1.1,0.8c0,0,0.8,2,1.1,2l0.7,2.2c0,0,0,0-0.1,0c-0.7,0-1.3,1.3-1.3,2.8
	c0,0.4,0.1,0.2,0.1,1.2h-0.8v3.1h-1v2.1h-1v6.2h-0.1c-0.1-1-0.8-2-1.7-2c-0.9,0-1.6,0.9-1.7,2h-0.7v8.2h-2.1v9.2H655
	c0,0,0-0.1,0-0.3c0-2.1-1.3-3.7-2.9-3.7c-1.6,0-2.9,1.5-2.9,3.7c0,0.2,0,0.4,0,0.4H648v3.1h-2.1v4.1h-14.4v3.1h-7.2v-3.1h-20.5v3.1
	h-10.3v3.1h-2.1v5.1h-2.1v3.1h-9.2v1H571v-4.1v-7.2v-4.1h-7.2v2.1h-1V459l-2.9-7.8l-2.3,7.8v3.1h-16.4v-15.2l5.1-1.7v-4.6h-2.6
	c-0.5-1.3-1.7-1.5-2.6-1.5v-2.6h2.1v-4.1h-2.1v-1h-3.1v1H536v4.1h2.1v2.6c-0.8,0.1-1.7,0.4-2.1,1.5H533v4.6l5.1,1.7v15.3h-12.3V459
	h-12.3v3.1h-3.1v-7.2h-4.1v-12.3h-21.6v-2.1h-2.1v-2.6l-2.1-0.2v-1.3h-3.1l-0.6-3.1h-3l0.3-2.1h-2.9v-2.1v-3.1V422h-24.6v7.2h4.1
	V459h-23.6v-14.4h-9.2v4.1h-4.1v-17.5h-3.1v-2.1h-8.2v2.1h-24.6v-3.1h-10.3v20.5h-4.1v8.2h-6.2v6.2h-4.1v5.1h-6.2v-2.1h-11.3v2.1
	h-13.4v-37h-3.1v-3.1h-25.7v3.1h-3.1v31.8h-11.3V460h-3.1v-71.9l-5.6-11.3H268v-3.1h-11.3v3.1h-4.1v82l-23.6-1.1v-24.5l-18.5-1.2
	l-52.4,4.3v-28.8h-11.3v-5.1h-9.2v5.1h-10.3V421h-2.1v39h-2.1v-9.2h-12.3v5.1H98.6v1h-4.1v3.1h-4.1v13.4h-6.2v-40.1h-3.1v-9.2H68
	l-5.4,1.5v5.6h-2.1v-45.2l-7.2-0.8l-3,3l-5.2-0.7v-1.5l-7.2-0.6v-2.1c-17.7,7.4-21.2,19.8-21.5,20.8c0,0-0.1,0.1-0.1,0.1v76.2h-4.1
	v-5.1H1v9.2v15.4v6.2h1020.8V498h2.6L1024.4,496z M706.8,443.3c-1.1,0-2-1.5-2-3.4s0.9-3.4,2-3.4c1.1,0,2,1.5,2,3.4
	S707.9,443.3,706.8,443.3z M715,443.3c-1.1,0-2-1.5-2-3.4s0.9-3.4,2-3.4c1.1,0,2,1.5,2,3.4S716.2,443.3,715,443.3z"/>
</svg>
